<svg width="400" height="117" viewBox="0 0 400 117" fill="none" xmlns="http://www.w3.org/2000/svg">
<path d="M11.0242 106.027H36.9633C37.1795 106.027 37.3956 106.242 37.3956 106.457V116.57C37.3956 116.785 37.1795 117 36.9633 117H0.43232C0.21616 117 0 116.785 0 116.57V0.430316C0 0.215158 0.21616 0 0.43232 0H36.9633C37.1795 0 37.3956 0.215158 37.3956 0.430316V10.3276C37.3956 10.5427 37.1795 10.7579 36.9633 10.7579H11.0242V106.027Z" fill="#261A65"/>
<path fill-rule="evenodd" clip-rule="evenodd" d="M268.367 89.4586C265.341 89.4586 262.531 88.598 259.937 87.0919C257.343 85.5858 255.398 83.4342 253.885 80.8523C252.372 78.2704 251.507 75.4733 251.507 72.2459V45.136C251.507 41.9087 252.155 39.1116 253.669 36.5297C255.182 33.9478 257.127 32.0114 259.721 30.2901C262.315 28.784 265.125 27.9234 268.151 27.9234C271.178 27.9234 273.988 28.784 276.582 30.2901C279.175 31.7962 281.121 33.9478 282.634 36.5297C284.147 39.1116 284.796 41.9087 284.796 45.136V72.2459C284.796 75.4733 283.931 78.2704 282.634 80.8523C281.121 83.4342 279.175 85.5858 276.582 87.0919C274.204 88.598 271.394 89.4586 268.367 89.4586ZM268.367 79.131C270.097 79.131 271.61 78.4855 272.907 76.9794C274.204 75.6885 274.852 73.9672 274.852 72.2459V45.136C274.852 43.1996 274.204 41.6935 273.123 40.4026C271.826 39.1116 270.313 38.4661 268.584 38.4661C266.854 38.4661 265.341 39.1116 264.044 40.4026C262.747 41.6935 262.099 43.1996 262.099 45.136V72.2459C262.099 74.1824 262.747 75.6885 264.044 76.9794C264.909 78.4855 266.422 79.131 268.367 79.131Z" fill="#261A65"/>
<path fill-rule="evenodd" clip-rule="evenodd" d="M29.5646 88.5979C29.3484 88.5979 29.1322 88.3828 29.1322 88.1676L29.3484 29.6446C29.3484 29.4295 29.5646 29.2143 29.7807 29.2143H45.7766C49.019 29.2143 51.829 29.8598 54.4229 31.3659C57.0169 32.872 59.1785 35.0236 60.6916 37.6055C62.2047 40.1874 63.0693 42.9844 63.0693 46.2118V70.7398C63.0693 73.9672 62.2047 76.9794 60.6916 79.7765C59.1785 82.5735 57.0169 84.7251 54.2068 86.2312C51.6129 87.7373 48.5866 88.5979 45.1281 88.5979H29.5646ZM39.5079 78.0552H44.9119C47.0735 78.0552 48.8028 77.4097 50.3159 75.9036C51.829 74.3975 52.4775 72.6763 52.4775 70.5247V45.9966C52.4775 44.2754 51.829 42.5541 50.5321 41.2632C49.2351 39.9722 47.5058 39.3268 45.7766 39.3268H39.7241L39.5079 78.0552Z" fill="#261A65"/>
<path d="M71.0671 88.5979C70.851 88.5979 70.851 88.3828 70.851 88.1676L80.5782 57.8303L71.0671 29.6446C71.0671 29.4295 71.0671 29.2143 71.2833 29.2143H80.7943C81.0105 29.2143 81.2266 29.4295 81.2266 29.6446L87.0629 49.8695L92.8993 29.6446C92.8993 29.4295 93.1154 29.2143 93.3316 29.2143H102.843C103.059 29.2143 103.059 29.4295 103.059 29.6446L93.5477 57.6152L103.275 88.1676C103.491 88.3828 103.275 88.5979 103.059 88.5979H93.5477C93.3316 88.5979 93.1154 88.3828 93.1154 88.1676L87.0629 66.2215L81.2266 88.1676C81.2266 88.3828 81.0105 88.5979 80.7943 88.5979H71.0671Z" fill="#261A65"/>
<path d="M116.623 88.1676C116.623 88.3828 116.839 88.5979 117.055 88.5979H126.782C126.999 88.5979 127.215 88.3828 127.215 88.1676V63.2093H139.968V88.1676C139.968 88.3828 140.184 88.5979 140.401 88.5979H149.912C150.128 88.5979 150.344 88.3828 150.344 88.1676L150.128 29.6446C150.128 29.4295 149.912 29.2143 149.695 29.2143H140.184C139.968 29.2143 139.752 29.4295 139.752 29.6446V52.8817H126.999V29.6446C126.999 29.4295 126.782 29.2143 126.566 29.2143H117.055C116.839 29.2143 116.623 29.4295 116.623 29.6446V52.8967H108.573C108.338 52.8967 108.147 53.0867 108.147 53.321V62.7771C108.147 63.0114 108.338 63.2014 108.573 63.2014H116.623V88.1676Z" fill="#261A65"/>
<path d="M163.962 88.5979C163.746 88.5979 163.53 88.3828 163.53 88.1676V29.6446C163.53 29.4295 163.746 29.2143 163.962 29.2143H191.414C191.63 29.2143 191.847 29.4295 191.847 29.6446V39.1116C191.847 39.3268 191.63 39.5419 191.414 39.5419H173.905V52.8817H191.414C191.63 52.8817 191.847 53.0969 191.847 53.312V62.9941C191.847 63.2093 191.63 63.4245 191.414 63.4245H173.905V78.2704H191.63C191.846 78.2704 192.063 78.4855 192.063 78.7007V88.3828C192.063 88.5979 191.846 88.8131 191.63 88.8131H163.962V88.5979Z" fill="#261A65"/>
<path fill-rule="evenodd" clip-rule="evenodd" d="M205.465 88.1676C205.465 88.3828 205.681 88.5979 205.898 88.5979V88.3828H215.409C215.625 88.3828 215.841 88.1676 215.841 87.9525V62.9941H221.461C223.623 62.9941 225.352 63.6396 226.865 65.1457C228.378 66.6518 229.027 68.3731 229.027 70.5247V88.1676C229.027 88.3828 229.243 88.3828 229.459 88.3828H239.186C239.402 88.3828 239.618 88.1676 239.618 87.9525V70.5247C239.618 65.7912 238.105 61.9183 235.079 58.4758C235.728 57.8303 236.592 56.9697 237.457 55.8939C238.322 54.603 238.97 53.312 239.618 51.5908C240.267 50.0847 240.483 48.1482 240.483 45.9966C240.483 42.7693 239.618 39.9722 238.105 37.3903C236.592 34.8084 234.431 32.872 231.837 31.3659C229.243 30.0749 226.433 29.2143 223.406 29.2143H206.114C205.898 29.2143 205.681 29.4295 205.681 29.6446L205.465 88.1676ZM223.406 52.8817H216.273V39.5419H223.623C225.352 39.5419 227.081 40.1874 228.378 41.4783C229.675 42.7693 230.324 44.4905 230.324 46.2118C230.324 48.1482 229.459 49.6543 228.162 50.9453C226.649 52.2362 225.136 52.8817 223.406 52.8817Z" fill="#261A65"/>
<path d="M297.549 88.1676C297.549 88.3828 297.765 88.5979 297.981 88.5979V88.8131H325.65C325.866 88.8131 326.082 88.5979 326.082 88.3828V78.7007C326.082 78.4855 325.866 78.2704 325.65 78.2704H307.924V63.4245H325.433C325.65 63.4245 325.866 63.2093 325.866 62.9941V53.312C325.866 53.0969 325.65 52.8817 325.433 52.8817H307.924V39.5419H325.433C325.65 39.5419 325.866 39.3268 325.866 39.1116V29.6446C325.866 29.4295 325.65 29.2143 325.433 29.2143H297.981C297.765 29.2143 297.549 29.4295 297.549 29.6446V88.1676Z" fill="#261A65"/>
<path d="M353.75 89.4586C350.724 89.4586 347.914 88.598 345.32 87.0919C342.726 85.5858 340.78 83.4342 339.267 80.8523C337.754 78.2704 337.106 75.4733 337.106 72.246V68.3731C337.106 68.158 337.322 67.9428 337.538 67.9428H347.049C347.265 67.9428 347.481 68.158 347.481 68.3731V72.246C347.481 74.1824 348.13 75.6885 349.427 76.9795C350.724 78.2704 352.237 78.9159 353.966 78.9159C355.695 78.9159 357.209 78.2704 358.506 76.9795C359.802 75.6885 360.451 73.9672 360.451 72.246C360.451 70.0944 359.154 68.3731 356.344 66.867C355.712 66.5524 354.733 66.0078 353.492 65.3172L353.491 65.3165L353.488 65.315L353.487 65.3146L353.482 65.3115C353.028 65.0592 352.54 64.7874 352.021 64.5003C351.307 64.1057 350.623 63.7112 349.957 63.3272C348.807 62.6643 347.712 62.0331 346.617 61.4881C343.374 59.7668 341.213 57.4001 339.7 54.603C338.187 51.806 337.538 48.7937 337.538 45.3512C337.538 42.1238 338.403 39.3268 339.916 36.7449C341.429 34.163 343.591 32.2266 345.968 30.7205C348.562 29.2144 351.156 28.5689 354.182 28.5689C357.209 28.5689 360.019 29.4295 362.613 30.7205C365.206 32.2266 367.152 34.163 368.665 36.7449C370.178 39.3268 370.827 42.1238 370.827 45.1361V52.0211C370.827 52.2363 370.61 52.4514 370.394 52.4514H360.883C360.667 52.4514 360.451 52.2363 360.451 52.0211V45.1361C360.451 43.1996 359.802 41.4784 358.506 40.1874C357.209 38.8965 355.695 38.251 353.966 38.251C352.237 38.251 350.724 38.8965 349.427 40.1874C348.13 41.4784 347.481 43.1996 347.481 44.9209C347.481 46.8573 347.914 48.3634 348.778 49.6544C349.643 50.9453 350.94 52.0211 353.102 53.3121C353.235 53.4451 353.534 53.578 353.947 53.7618L353.947 53.7621C354.202 53.8756 354.501 54.0086 354.831 54.1727C355.695 54.603 356.56 55.0333 357.425 55.6788C357.937 56.0612 358.525 56.3681 359.054 56.6442C359.418 56.8342 359.754 57.0095 360.019 57.1849C360.883 57.6152 361.316 57.8304 361.532 58.0455C364.342 59.5516 366.72 61.4881 368.233 63.8548C369.962 66.2216 370.61 69.0186 370.61 72.246C370.61 75.4733 369.746 78.4856 368.449 81.0675C366.936 83.6493 364.99 85.8009 362.396 87.307C359.586 88.598 356.776 89.4586 353.75 89.4586Z" fill="#261A65"/>
<path d="M388.976 10.7579H363.037C362.821 10.7579 362.604 10.5427 362.604 10.3276V0.430316C362.604 0.215158 362.821 0 363.037 0H399.568C399.784 0 400 0.215158 400 0.430316V116.57C400 116.785 399.784 117 399.568 117H363.037C362.821 117 362.604 116.785 362.604 116.57V106.457C362.604 106.242 362.821 106.027 363.037 106.027H388.976V10.7579Z" fill="#261A65"/>
</svg>
